<mxfile host="app.diagrams.net" modified="2023-07-29T10:13:33.978Z" agent="Mozilla/5.0 (X11; Linux x86_64; rv:109.0) Gecko/20100101 Firefox/115.0" etag="NQ3li_81rLEFBRq0Svi9" version="21.6.6" type="device">
  <diagram name="Page-1" id="Z9XUGllHTznlubuBipzg">
    <mxGraphModel dx="1125" dy="601" grid="1" gridSize="10" guides="1" tooltips="1" connect="1" arrows="1" fold="1" page="1" pageScale="1" pageWidth="850" pageHeight="1100" math="0" shadow="0">
      <root>
        <mxCell id="0" />
        <mxCell id="1" parent="0" />
        <mxCell id="F7r6BUqboib9oAzdjjM0-1" value="&lt;div&gt;Cliente&lt;/div&gt;&lt;div&gt;&lt;span style=&quot;font-weight: normal;&quot;&gt;&lt;font style=&quot;font-size: 9px;&quot;&gt;&amp;lt;&amp;lt;sistema externo&amp;gt;&amp;gt;&lt;/font&gt;&lt;/span&gt;&lt;br&gt;&lt;/div&gt;" style="rounded=1;whiteSpace=wrap;html=1;fillColor=#f5f5f5;fontColor=#333333;strokeColor=#666666;fontStyle=1" parent="1" vertex="1">
          <mxGeometry x="378" y="70" width="112" height="40" as="geometry" />
        </mxCell>
        <mxCell id="F7r6BUqboib9oAzdjjM0-2" value="&lt;div&gt;&lt;b&gt;Sistema de Perfilado&lt;/b&gt;&lt;br&gt;&lt;/div&gt;&lt;div&gt;&lt;font style=&quot;font-size: 9px;&quot;&gt;&amp;nbsp;&amp;nbsp;&amp;nbsp;&amp;nbsp;&amp;nbsp;&amp;nbsp;&amp;nbsp;&amp;nbsp;&amp;nbsp;&amp;nbsp;&amp;nbsp;&amp;nbsp;&amp;nbsp; [sistema]&lt;/font&gt;&lt;br&gt;&lt;/div&gt;" style="rounded=1;whiteSpace=wrap;html=1;dashed=1;labelPosition=center;verticalLabelPosition=middle;align=left;verticalAlign=top;horizontal=1;spacingLeft=10;spacingTop=10;arcSize=5;" parent="1" vertex="1">
          <mxGeometry x="219" y="180" width="521" height="310" as="geometry" />
        </mxCell>
        <mxCell id="F7r6BUqboib9oAzdjjM0-3" value="Envía" style="endArrow=classic;html=1;exitX=0.5;exitY=1;exitDx=0;exitDy=0;fontSize=9;labelPosition=center;verticalLabelPosition=middle;align=center;verticalAlign=middle;fillColor=#f5f5f5;strokeColor=#666666;curved=1;entryX=0.5;entryY=0;entryDx=0;entryDy=0;" parent="1" edge="1">
          <mxGeometry x="0.3474" y="9" width="50" height="50" relative="1" as="geometry">
            <mxPoint x="425" y="110" as="sourcePoint" />
            <mxPoint x="425" y="200" as="targetPoint" />
            <Array as="points">
              <mxPoint x="382" y="140" />
            </Array>
            <mxPoint as="offset" />
          </mxGeometry>
        </mxCell>
        <mxCell id="F7r6BUqboib9oAzdjjM0-4" value="Devuelve" style="endArrow=classic;html=1;exitX=0.5;exitY=0;exitDx=0;exitDy=0;entryX=0.5;entryY=1;entryDx=0;entryDy=0;fontSize=9;labelPosition=center;verticalLabelPosition=middle;align=center;verticalAlign=middle;fillColor=#f5f5f5;strokeColor=#666666;curved=1;" parent="1" edge="1">
          <mxGeometry x="-0.1417" y="11" width="50" height="50" relative="1" as="geometry">
            <mxPoint x="448" y="200" as="sourcePoint" />
            <mxPoint x="448" y="110" as="targetPoint" />
            <Array as="points">
              <mxPoint x="490" y="140" />
            </Array>
            <mxPoint as="offset" />
          </mxGeometry>
        </mxCell>
        <mxCell id="F7r6BUqboib9oAzdjjM0-6" value="&lt;div&gt;&lt;b&gt;Controlador&lt;/b&gt;&lt;/div&gt;&lt;div style=&quot;font-size: 9px;&quot;&gt;&amp;lt;&amp;lt;componente&amp;gt;&amp;gt;&lt;/div&gt;&lt;div style=&quot;font-size: 9px;&quot;&gt;&lt;br&gt;&lt;/div&gt;&lt;div style=&quot;font-size: 9px;&quot;&gt;Publica una API REST para los clientes y redirige las peticiones al servicio correspondiente&lt;br&gt;&lt;/div&gt;" style="rounded=1;whiteSpace=wrap;html=1;fillColor=#dae8fc;strokeColor=#6c8ebf;" parent="1" vertex="1">
          <mxGeometry x="366" y="200" width="136" height="100" as="geometry" />
        </mxCell>
        <mxCell id="F7r6BUqboib9oAzdjjM0-7" value="&lt;div&gt;&lt;b&gt;Servicio de perfilado&lt;br&gt;&lt;/b&gt;&lt;/div&gt;&lt;div style=&quot;font-size: 9px;&quot;&gt;&amp;lt;&amp;lt;componente&amp;gt;&amp;gt;&lt;/div&gt;&lt;div style=&quot;font-size: 9px;&quot;&gt;&lt;br&gt;&lt;/div&gt;&lt;div style=&quot;font-size: 9px;&quot;&gt;Servicio encargado de realizar el perfilado del dataset, de comenzar el entrenamiento de los modelos y de obtener su rendimiento&lt;br&gt;&lt;/div&gt;" style="rounded=1;whiteSpace=wrap;html=1;fillColor=#dae8fc;strokeColor=#6c8ebf;" parent="1" vertex="1">
          <mxGeometry x="366" y="350" width="136" height="120" as="geometry" />
        </mxCell>
        <mxCell id="F7r6BUqboib9oAzdjjM0-8" value="Envía" style="endArrow=classic;html=1;exitX=0.5;exitY=1;exitDx=0;exitDy=0;fontSize=9;labelPosition=center;verticalLabelPosition=middle;align=center;verticalAlign=middle;fillColor=#f5f5f5;strokeColor=#666666;curved=1;entryX=0.5;entryY=0;entryDx=0;entryDy=0;" parent="1" edge="1">
          <mxGeometry x="0.0231" y="1" width="50" height="50" relative="1" as="geometry">
            <mxPoint x="425.5" y="300" as="sourcePoint" />
            <mxPoint x="425.5" y="350.0000000000001" as="targetPoint" />
            <Array as="points">
              <mxPoint x="404" y="310" />
            </Array>
            <mxPoint as="offset" />
          </mxGeometry>
        </mxCell>
        <mxCell id="F7r6BUqboib9oAzdjjM0-9" value="Devuelve" style="endArrow=classic;html=1;exitX=0.5;exitY=0;exitDx=0;exitDy=0;entryX=0.5;entryY=1;entryDx=0;entryDy=0;fontSize=9;labelPosition=center;verticalLabelPosition=middle;align=center;verticalAlign=middle;fillColor=#f5f5f5;strokeColor=#666666;curved=1;" parent="1" edge="1">
          <mxGeometry x="-0.2631" y="5" width="50" height="50" relative="1" as="geometry">
            <mxPoint x="440" y="350.0000000000001" as="sourcePoint" />
            <mxPoint x="440" y="300" as="targetPoint" />
            <Array as="points">
              <mxPoint x="470" y="320" />
            </Array>
            <mxPoint as="offset" />
          </mxGeometry>
        </mxCell>
        <mxCell id="mjvP0WytRciLdo4nnpOr-1" value="&lt;div&gt;&lt;b&gt;Base de Datos&lt;br&gt;&lt;/b&gt;&lt;/div&gt;&lt;div&gt;&lt;b&gt;&lt;br&gt;&lt;/b&gt;&lt;/div&gt;&lt;div style=&quot;font-size: 9px;&quot;&gt;Almacena los resultados del proceso de perfilado&lt;b&gt;&lt;br&gt;&lt;/b&gt;&lt;/div&gt;" style="shape=cylinder3;whiteSpace=wrap;html=1;boundedLbl=1;backgroundOutline=1;size=15;fillColor=#dae8fc;strokeColor=#6c8ebf;horizontal=1;verticalAlign=top;shadow=0;comic=0;enumerate=0;treeMoving=0;treeFolding=0;resizeHeight=0;" vertex="1" parent="1">
          <mxGeometry x="600" y="360" width="110" height="100" as="geometry" />
        </mxCell>
        <mxCell id="mjvP0WytRciLdo4nnpOr-2" value="&lt;div&gt;Consulta/&lt;/div&gt;&lt;div&gt;Almacena&lt;/div&gt;" style="endArrow=classic;html=1;exitX=1;exitY=0.5;exitDx=0;exitDy=0;fontSize=9;labelPosition=center;verticalLabelPosition=middle;align=center;verticalAlign=middle;fillColor=#f5f5f5;strokeColor=#666666;curved=1;entryX=0;entryY=0.5;entryDx=0;entryDy=0;entryPerimeter=0;" edge="1" parent="1">
          <mxGeometry x="0.0231" y="1" width="50" height="50" relative="1" as="geometry">
            <mxPoint x="502" y="420" as="sourcePoint" />
            <mxPoint x="600" y="420" as="targetPoint" />
            <Array as="points">
              <mxPoint x="520" y="440" />
            </Array>
            <mxPoint as="offset" />
          </mxGeometry>
        </mxCell>
        <mxCell id="mjvP0WytRciLdo4nnpOr-8" value="Devuelve" style="endArrow=classic;html=1;exitX=0;exitY=0.5;exitDx=0;exitDy=0;entryX=1;entryY=0.5;entryDx=0;entryDy=0;fontSize=9;labelPosition=center;verticalLabelPosition=middle;align=center;verticalAlign=middle;fillColor=#f5f5f5;strokeColor=#666666;curved=1;exitPerimeter=0;" edge="1" parent="1">
          <mxGeometry x="0.0669" y="12" width="50" height="50" relative="1" as="geometry">
            <mxPoint x="600" y="400" as="sourcePoint" />
            <mxPoint x="502" y="400" as="targetPoint" />
            <Array as="points">
              <mxPoint x="560" y="360" />
            </Array>
            <mxPoint as="offset" />
          </mxGeometry>
        </mxCell>
      </root>
    </mxGraphModel>
  </diagram>
</mxfile>
